<svg width="33" height="17" viewBox="0 0 33 17" version="1.1" xmlns="http://www.w3.org/2000/svg"><g id="Page-1" stroke="none" stroke-width="1" fill="none" fill-rule="evenodd"><g id="Riverbend-CSA-Shop-Page" transform="translate(-484 -3430)" fill="#FFF" fill-rule="nonzero"><g id="Group-6-Copy-7" transform="translate(258 3408)"><g id="Group-6" transform="translate(226 22)"><path d="M0 .797C0 .355.355 0 .797 0h1.51c.731 0 1.379.425 1.68 1.063h13.647c.873 0 1.51.83 1.282 1.673l-1.362 5.057a2.394 2.394 0 01-2.307 1.77h-9.58l.18.946a.8.8 0 00.784.647h9.572c.442 0 .797.356.797.797a.795.795 0 01-.797.797H6.631a2.388 2.388 0 01-2.348-1.942L2.57 1.81a.264.264 0 00-.262-.216H.797A.795.795 0 010 .797zm4.25 14.61a1.594 1.594 0 113.187 0 1.594 1.594 0 01-3.187 0zm11.156-1.595a1.594 1.594 0 110 3.188 1.594 1.594 0 010-3.188z" id="Shape"/><g id="+" transform="translate(24.052 3.09)"><path d="M8.418 3.417H5.303V.285C5.303.089 5.197 0 5.001 0H3.7c-.195 0-.284.089-.284.285v3.132H.285c-.196 0-.285.089-.285.285v1.317c0 .195.089.284.285.284h3.132v3.115c0 .196.089.285.285.285H5c.196 0 .302-.09.302-.285V5.303h3.115c.196 0 .285-.089.285-.284V3.702c0-.196-.09-.285-.285-.285z" id="Path"/></g></g></g></g></g></svg>