<?xml version="1.0" encoding="UTF-8"?>
<svg width="20px" height="18px" viewBox="0 0 20 18" version="1.1" xmlns="http://www.w3.org/2000/svg" xmlns:xlink="http://www.w3.org/1999/xlink">
    <title></title>
    <g id="Page-1" stroke="none" stroke-width="1" fill="none" fill-rule="evenodd">
        <g id="Riverbend-CSA-Home-Copy-18" transform="translate(-1394, -37)" fill="#D8FFB7" fill-rule="nonzero">
            <g id="Header" transform="translate(1, -1)">
                <g id="" transform="translate(1393.4375, 38.2289)">
                    <path d="M0,0.796875 C0,0.355273843 0.355273336,0 0.796875,0 L2.30761719,0 C3.03808594,0 3.68554688,0.424999595 3.98769552,1.0625 L17.6341789,1.0625 C18.5074207,1.0625 19.1449211,1.89257812 18.9158187,2.7359373 L17.5544906,7.79277384 C17.272264,8.83535177 16.3259749,9.5625 15.2468734,9.5625 L5.66777384,9.5625 L5.84707052,10.5087891 C5.92011729,10.883984 6.24882853,11.15625 6.63066447,11.15625 L16.203125,11.15625 C16.6447262,11.15625 17,11.5115238 17,11.953125 C17,12.3947262 16.6447262,12.75 16.203125,12.75 L6.63066447,12.75 C5.48183665,12.75 4.49570343,11.9332029 4.28320363,10.8076172 L2.56992218,1.80957031 C2.54668009,1.68339884 2.43710968,1.59375 2.30761719,1.59375 L0.796875,1.59375 C0.355273336,1.59375 0,1.23847616 0,0.796875 Z M4.25,15.40625 C4.25,14.8368582 4.55376685,14.3107181 5.046875,14.0260222 C5.53998315,13.7413263 6.14751685,13.7413263 6.640625,14.0260222 C7.13373315,14.3107181 7.4375,14.8368582 7.4375,15.40625 C7.4375,15.9756418 7.13373315,16.5017819 6.640625,16.7864778 C6.14751685,17.0711747 5.53998315,17.0711747 5.046875,16.7864778 C4.55376685,16.5017819 4.25,15.9756418 4.25,15.40625 Z M15.40625,13.8125 C15.9756418,13.8125 16.5017819,14.1162668 16.7864778,14.609375 C17.0711747,15.1024832 17.0711747,15.7100168 16.7864778,16.203125 C16.5017819,16.6962332 15.9756418,17 15.40625,17 C14.8368582,17 14.3107181,16.6962332 14.0260222,16.203125 C13.7413263,15.7100168 13.7413263,15.1024832 14.0260222,14.609375 C14.3107181,14.1162668 14.8368582,13.8125 15.40625,13.8125 Z" id="Shape"></path>
                </g>
            </g>
        </g>
    </g>
</svg>