<?xml version="1.0" encoding="UTF-8"?>
<svg width="12px" height="23px" viewBox="0 0 12 23" version="1.1" xmlns="http://www.w3.org/2000/svg" xmlns:xlink="http://www.w3.org/1999/xlink">
    <!-- Generator: Sketch 52.5 (67469) - http://www.bohemiancoding.com/sketch -->
    <title></title>
    <desc>Created with Sketch.</desc>
    <g id="Page-1" stroke="none" stroke-width="1" fill="none" fill-rule="evenodd">
        <g id="Riverbend-CSA-Home" transform="translate(-714.000000, -5486.000000)" fill="#B0B0B0">
            <g id="Group-9" transform="translate(644.000000, 5486.000000)">
                <path d="M73.6367109,22.7499934 L73.6367109,12.9101732 L70.328125,12.9101732 L70.328125,9.00002623 L73.6367109,9.00002623 L73.6367109,5.9062836 C73.6367109,4.273475 74.0950433,3.00589989 75.0117076,2.10355829 C75.9283718,1.20121669 77.1458173,0.750045896 78.6640426,0.750045896 C79.8958107,0.750045896 80.8984123,0.807337207 81.671848,0.921920486 L81.671848,4.40238094 L79.6093529,4.40238094 C78.8359172,4.40238094 78.3059708,4.57425553 78.0195129,4.91800471 C77.790347,5.20446258 77.6757637,5.66279438 77.6757637,6.29300143 L77.6757637,9.00002623 L81.3280988,9.00002623 L80.812475,12.9101732 L77.6757637,12.9101732 L77.6757637,22.7499934 L73.6367109,22.7499934 Z" id=""></path>
            </g>
        </g>
    </g>
</svg>