<?xml version="1.0" encoding="UTF-8"?>
<svg width="20px" height="20px" viewBox="0 0 20 20" version="1.1" xmlns="http://www.w3.org/2000/svg" xmlns:xlink="http://www.w3.org/1999/xlink">
    <!-- Generator: Sketch 52.5 (67469) - http://www.bohemiancoding.com/sketch -->
    <title></title>
    <desc>Created with Sketch.</desc>
    <g id="Page-1" stroke="none" stroke-width="1" fill="none" fill-rule="evenodd">
        <g id="Riverbend-CSA-Home" transform="translate(-644.000000, -5488.000000)" fill="#B0B0B0">
            <g id="Group-9" transform="translate(644.000000, 5486.000000)">
                <path d="M9.99997705,6.8086252 C10.887996,6.8086252 11.7115613,7.0306301 12.4706743,7.47463924 C13.2297873,7.91864838 13.8313483,8.52020944 14.2753575,9.27932244 C14.7193666,10.0384354 14.9413715,10.8620007 14.9413715,11.7500197 C14.9413715,12.6380386 14.7193666,13.4616039 14.2753575,14.2207169 C13.8313483,14.9798299 13.2297873,15.581391 12.4706743,16.0254001 C11.7115613,16.4694092 10.887996,16.6914141 9.99997705,16.6914141 C9.11195812,16.6914141 8.28839281,16.4694092 7.52927982,16.0254001 C6.77016683,15.581391 6.16860576,14.9798299 5.72459662,14.2207169 C5.28058748,13.4616039 5.05858258,12.6380386 5.05858258,11.7500197 C5.05858258,10.8620007 5.28058748,10.0384354 5.72459662,9.27932244 C6.16860576,8.52020944 6.77016683,7.91864838 7.52927982,7.47463924 C8.28839281,7.0306301 9.11195812,6.8086252 9.99997705,6.8086252 Z M9.99997705,14.9726682 C10.887996,14.9726682 11.6471083,14.657565 12.2773154,14.027358 C12.9075224,13.3971509 13.2226256,12.6380386 13.2226256,11.7500197 C13.2226256,10.8620007 12.9075224,10.1028884 12.2773154,9.47268135 C11.6471083,8.8424743 10.887996,8.5273711 9.99997705,8.5273711 C9.11195812,8.5273711 8.35284578,8.8424743 7.72263873,9.47268135 C7.09243168,10.1028884 6.77732849,10.8620007 6.77732849,11.7500197 C6.77732849,12.6380386 7.09243168,13.3971509 7.72263873,14.027358 C8.35284578,14.657565 9.11195812,14.9726682 9.99997705,14.9726682 Z M16.3163682,6.59378196 C16.2877223,6.90888516 16.165978,7.18102036 15.9511347,7.41018627 C15.7362915,7.63935217 15.471318,7.75393545 15.1562148,7.75393545 C14.8411116,7.75393545 14.5689764,7.63935217 14.3398105,7.41018627 C14.1106446,7.18102036 13.9960613,6.90888516 13.9960613,6.59378196 C13.9960613,6.27867877 14.1106446,6.00654356 14.3398105,5.77737766 C14.5689764,5.54821176 14.8411116,5.43362848 15.1562148,5.43362848 C15.471318,5.43362848 15.7434532,5.54821176 15.9726191,5.77737766 C16.201785,6.00654356 16.3163682,6.27867877 16.3163682,6.59378196 Z M19.5819855,7.75393545 C19.6106314,8.55601709 19.6249541,9.88804516 19.6249541,11.7500197 C19.6249541,13.6119942 19.6034698,14.9511839 19.5605011,15.7675882 C19.5175325,16.5839925 19.3957882,17.2929752 19.1952676,17.8945363 C18.9374557,18.6106806 18.5435763,19.233726 18.0136298,19.7636724 C17.4836834,20.2936189 16.860638,20.6874984 16.1444937,20.9453102 C15.5429326,21.1458308 14.8339499,21.2675751 14.0175456,21.3105438 C13.2011413,21.3535124 11.8619516,21.3749967 9.99997705,21.3749967 C8.13800254,21.3749967 6.79881281,21.3535124 5.98240851,21.3105438 C5.1660042,21.2675751 4.45702152,21.1315075 3.85546045,20.9023416 C3.13931611,20.6731757 2.51627072,20.2936189 1.98632428,19.7636724 C1.45637785,19.233726 1.06249836,18.6106806 0.804686476,17.8945363 C0.604165902,17.2929752 0.482421619,16.5839925 0.439452971,15.7675882 C0.396484324,14.9511839 0.375,13.6119942 0.375,11.7500197 C0.375,9.88804516 0.396484324,8.54885543 0.439452971,7.73245112 C0.482421619,6.91604682 0.604165902,6.20706414 0.804686476,5.60550307 C1.06249836,4.88935872 1.45637785,4.26631334 1.98632428,3.7363669 C2.51627072,3.20642047 3.13931611,2.81254098 3.85546045,2.55472909 C4.45702152,2.35420852 5.1660042,2.23246424 5.98240851,2.18949559 C6.79881281,2.14652694 8.13800254,2.12504262 9.99997705,2.12504262 C11.8619516,2.12504262 13.2011413,2.14652694 14.0175456,2.18949559 C14.8339499,2.23246424 15.5429326,2.35420852 16.1444937,2.55472909 C16.860638,2.81254098 17.4836834,3.20642047 18.0136298,3.7363669 C18.5435763,4.26631334 18.9374557,4.88935872 19.1952676,5.60550307 C19.3957882,6.20706414 19.5246941,6.92320848 19.5819855,7.75393545 Z M17.5194904,17.4218811 C17.691365,16.9349034 17.8059482,16.1614677 17.8632396,15.1015742 C17.8918855,14.4713671 17.9062082,13.5833489 17.9062082,12.437518 L17.9062082,11.0625213 C17.9062082,9.88804516 17.8918855,9.00002623 17.8632396,8.39846516 C17.8059482,7.30992631 17.691365,6.53649065 17.5194904,6.07815819 C17.1757412,5.19013926 16.5598575,4.57425553 15.6718385,4.23050635 C15.2135061,4.05863176 14.4400704,3.94404848 13.3515316,3.88675717 C12.7213245,3.85811118 11.8333062,3.84378852 10.6874754,3.84378852 L9.31247869,3.84378852 C8.16664787,3.84378852 7.27862959,3.85811118 6.64842254,3.88675717 C5.58852902,3.94404848 4.81509336,4.05863176 4.32811558,4.23050635 C3.44009664,4.57425553 2.82421291,5.19013926 2.48046373,6.07815819 C2.30858914,6.53649065 2.19400586,7.30992631 2.13671455,8.39846516 C2.10806857,9.02867221 2.0937459,9.91669049 2.0937459,11.0625213 L2.0937459,12.437518 C2.0937459,13.5833489 2.10806857,14.4713671 2.13671455,15.1015742 C2.19400586,16.1614677 2.30858914,16.9349034 2.48046373,17.4218811 C2.85285889,18.3099001 3.46874262,18.9257838 4.32811558,19.269533 C4.81509336,19.4414076 5.58852902,19.5559909 6.64842254,19.6132822 C7.27862959,19.6419282 8.16664787,19.6562508 9.31247869,19.6562508 L10.6874754,19.6562508 C11.8619516,19.6562508 12.7499705,19.6419282 13.3515316,19.6132822 C14.4400704,19.5559909 15.2135061,19.4414076 15.6718385,19.269533 C16.5598575,18.8971378 17.1757412,18.2812541 17.5194904,17.4218811 Z" id=""></path>
            </g>
        </g>
    </g>
</svg>