<?xml version="1.0" encoding="UTF-8"?>
<svg width="22px" height="19px" viewBox="0 0 22 19" version="1.1" xmlns="http://www.w3.org/2000/svg" xmlns:xlink="http://www.w3.org/1999/xlink">
    <!-- Generator: Sketch 52.5 (67469) - http://www.bohemiancoding.com/sketch -->
    <title></title>
    <desc>Created with Sketch.</desc>
    <g id="Page-1" stroke="none" stroke-width="1" fill="none" fill-rule="evenodd">
        <g id="Riverbend-CSA-Home" transform="translate(-775.000000, -5488.000000)" fill="#B0B0B0">
            <g id="Group-9" transform="translate(644.000000, 5486.000000)">
                <path d="M150.722609,7.28128032 C150.751255,7.3958636 150.765578,7.58206086 150.765578,7.83987274 C150.765578,9.90236782 150.264277,11.8932483 149.261675,13.8125148 C148.230428,15.8463639 146.783816,17.4648498 144.921842,18.6679719 C142.887993,20.0143227 140.553362,20.6874984 137.917952,20.6874984 C135.397125,20.6874984 133.091141,20.0143227 131,18.6679719 C131.315103,18.6966179 131.673176,18.7109406 132.074216,18.7109406 C134.165357,18.7109406 136.041654,18.0664109 137.703109,16.7773514 C136.700507,16.7773514 135.81965,16.4837326 135.060537,15.8964942 C134.301424,15.3092558 133.778639,14.5716277 133.492182,13.6836088 C133.778639,13.7122548 134.050774,13.7265775 134.308586,13.7265775 C134.709626,13.7265775 135.110668,13.6836088 135.511708,13.5976715 C134.48046,13.3685056 133.621088,12.8385585 132.933589,12.0078316 C132.246091,11.1771046 131.902342,10.2317943 131.902342,9.17190082 L131.902342,9.08596352 C132.532549,9.45835869 133.205724,9.6588786 133.921868,9.68752459 C133.320307,9.25783811 132.833329,8.71356836 132.460934,8.05471598 C132.088539,7.3958636 131.902342,6.6725576 131.902342,5.88479928 C131.902342,5.09704096 132.117185,4.34508963 132.546871,3.62894528 C133.664056,5.03258799 135.031891,6.14977282 136.650377,6.98049979 C138.268863,7.81122676 139.99477,8.26955922 141.828099,8.35549651 C141.770808,8.01174733 141.742162,7.66799815 141.742162,7.32424897 C141.742162,6.52216733 141.942682,5.770216 142.343723,5.06839497 C142.744763,4.36657395 143.289033,3.81514254 143.976532,3.41410204 C144.66403,3.01306155 145.40882,2.81254098 146.210901,2.81254098 C146.869754,2.81254098 147.478476,2.94144692 148.037069,3.19925881 C148.595661,3.45707069 149.089801,3.80081987 149.519487,4.23050635 C150.550735,4.02998577 151.510368,3.67191393 152.398386,3.15629016 C152.054637,4.21618368 151.395785,5.04691065 150.421829,5.64847172 C151.281202,5.53388844 152.140575,5.29039987 152.999948,4.91800471 C152.36974,5.83466897 151.610628,6.62242795 150.722609,7.28128032 Z" id=""></path>
            </g>
        </g>
    </g>
</svg>